<svg xmlns="http://www.w3.org/2000/svg" width="40" height="40" fill="none" viewBox="0 0 40 40"><g clip-path="url(#a)"><path fill="#0052ff" d="M0 0h40v40H0z"/><path fill="#0052ff" fill-rule="evenodd" d="M8.331 0h23.336C36.27 0 40 4.013 40 8.963v22.074C40 35.987 36.27 40 31.669 40H8.33C3.73 40 0 35.987 0 31.037V8.963C0 4.013 3.73 0 8.331 0" clip-rule="evenodd"/><path fill="#fff" fill-rule="evenodd" d="M19.999 5.794c7.846 0 14.206 6.36 14.206 14.207 0 7.846-6.36 14.206-14.206 14.206S5.793 27.847 5.793 20.001c0-7.847 6.36-14.207 14.206-14.207" clip-rule="evenodd"/><path fill="#0052ff" fill-rule="evenodd" d="M16.5 15.459h6.997c.576 0 1.042.502 1.042 1.12v6.84c0 .62-.467 1.12-1.042 1.12H16.5c-.575 0-1.041-.502-1.041-1.12v-6.84c0-.618.467-1.12 1.041-1.12" clip-rule="evenodd"/></g><defs><clipPath id="a"><path fill="#fff" d="M0 0h40v40H0z"/></clipPath></defs></svg>